<svg width="400" height="48" viewBox="0 0 400 48" fill="none" xmlns="http://www.w3.org/2000/svg">
<path d="M19.0017 36.6673V47.5003L38 36.5269V25.6952L19.0017 36.6673Z" fill="#2947A9"/>
<path d="M27.5062 15.745L36.8802 10.3284L19.0017 0V10.8328L27.5062 15.745Z" fill="#0B267D"/>
<path d="M11.6182 18.9795V29.8158L19.0015 34.0795V23.2481L11.6182 18.9795Z" fill="#91A1D4"/>
<path d="M38 12.2701L19.0017 23.2481V34.0795L38 23.1061V12.2701Z" fill="#2947A9"/>
<path d="M1.13135 10.3221L10.4492 15.7703L19.0014 10.8328V0L1.13135 10.3221Z" fill="#2947A9"/>
<path d="M9.3772 31.1103V17.68L0 12.2652V36.5266L19.0014 47.5V36.6669L9.3772 31.1103Z" fill="#91A1D4"/>
<path d="M50.35 34L61.81 14.2H68.05L70.27 34H65.38L64.99 29.35H58.24L55.72 34H50.35ZM60.1 25.84H64.81L64.21 18.16L60.1 25.84ZM72.127 34L75.607 19H80.137L79.207 24.46L78.997 23.95C79.317 22.89 79.737 21.97 80.257 21.19C80.777 20.41 81.417 19.8 82.177 19.36C82.937 18.92 83.797 18.7 84.757 18.7C85.097 18.7 85.377 18.73 85.597 18.79C85.837 18.83 86.037 18.89 86.197 18.97L84.967 23.26C84.767 23.16 84.527 23.09 84.247 23.05C83.987 22.99 83.647 22.96 83.227 22.96C82.607 22.96 81.997 23.1 81.397 23.38C80.817 23.64 80.307 24.07 79.867 24.67C79.427 25.27 79.087 26.07 78.847 27.07L77.227 34H72.127ZM93.2167 34.3C91.6367 34.3 90.2767 34.01 89.1367 33.43C88.0167 32.83 87.1567 32.02 86.5567 31C85.9567 29.96 85.6567 28.78 85.6567 27.46C85.6567 25.84 85.9867 24.37 86.6467 23.05C87.3267 21.73 88.3067 20.68 89.5867 19.9C90.8867 19.1 92.4467 18.7 94.2667 18.7C95.6467 18.7 96.8467 18.93 97.8667 19.39C98.9067 19.85 99.7167 20.49 100.297 21.31C100.897 22.13 101.217 23.09 101.257 24.19L96.3667 24.97C96.4267 24.19 96.2867 23.56 95.9467 23.08C95.6267 22.6 95.0567 22.36 94.2367 22.36C93.6767 22.36 93.1767 22.53 92.7367 22.87C92.2967 23.19 91.9167 23.62 91.5967 24.16C91.2967 24.7 91.0567 25.3 90.8767 25.96C90.7167 26.6 90.6367 27.25 90.6367 27.91C90.6367 28.47 90.7367 28.96 90.9367 29.38C91.1567 29.8 91.4567 30.13 91.8367 30.37C92.2367 30.59 92.7067 30.7 93.2467 30.7C93.7867 30.7 94.2867 30.52 94.7467 30.16C95.2267 29.78 95.5567 29.28 95.7367 28.66L100.297 30.13C99.7367 31.43 98.8367 32.45 97.5967 33.19C96.3767 33.93 94.9167 34.3 93.2167 34.3ZM101.541 34L106.491 12.64H111.591L109.341 22.42L108.831 23.14C109.091 22.3 109.481 21.55 110.001 20.89C110.521 20.23 111.171 19.7 111.951 19.3C112.731 18.9 113.621 18.7 114.621 18.7C115.621 18.7 116.471 18.93 117.171 19.39C117.891 19.85 118.391 20.5 118.671 21.34C118.971 22.18 118.991 23.18 118.731 24.34L116.481 34H111.381L113.451 25.15C113.631 24.35 113.561 23.73 113.241 23.29C112.921 22.83 112.401 22.6 111.681 22.6C111.141 22.6 110.661 22.73 110.241 22.99C109.841 23.23 109.491 23.6 109.191 24.1C108.911 24.58 108.691 25.18 108.531 25.9L106.641 34H101.541ZM126.631 17.26C125.751 17.26 125.061 17.08 124.561 16.72C124.081 16.36 123.891 15.78 123.991 14.98C124.091 14.06 124.401 13.4 124.921 13C125.441 12.58 126.171 12.37 127.111 12.37C128.011 12.37 128.701 12.56 129.181 12.94C129.681 13.32 129.881 13.88 129.781 14.62C129.681 15.6 129.361 16.29 128.821 16.69C128.301 17.07 127.571 17.26 126.631 17.26ZM128.491 19L125.011 34H119.911L123.391 19H128.491ZM136.203 34.27C134.963 34.27 133.913 34.06 133.053 33.64C132.193 33.2 131.593 32.55 131.253 31.69C130.913 30.83 130.883 29.77 131.163 28.51L134.073 15.76L139.533 14.32L136.263 28.39C136.063 29.17 136.153 29.76 136.533 30.16C136.933 30.54 137.513 30.73 138.273 30.73C138.733 30.73 139.103 30.69 139.383 30.61C139.683 30.53 139.943 30.43 140.163 30.31L139.863 33.58C139.323 33.84 138.743 34.02 138.123 34.12C137.503 34.22 136.863 34.27 136.203 34.27ZM129.723 22.63L130.563 19H142.533L141.693 22.63H129.723ZM150.401 34.27C148.921 34.27 147.621 33.99 146.501 33.43C145.381 32.85 144.511 32.05 143.891 31.03C143.271 30.01 142.961 28.82 142.961 27.46C142.961 25.78 143.301 24.29 143.981 22.99C144.681 21.67 145.661 20.63 146.921 19.87C148.201 19.11 149.721 18.73 151.481 18.73C152.941 18.73 154.181 19.01 155.201 19.57C156.241 20.11 157.031 20.88 157.571 21.88C158.111 22.88 158.381 24.06 158.381 25.42C158.381 25.8 158.361 26.2 158.321 26.62C158.281 27.04 158.201 27.45 158.081 27.85H146.261V25.09H154.751L153.341 25.87C153.421 25.59 153.471 25.35 153.491 25.15C153.511 24.95 153.521 24.76 153.521 24.58C153.521 24.06 153.431 23.63 153.251 23.29C153.071 22.95 152.821 22.7 152.501 22.54C152.181 22.36 151.801 22.27 151.361 22.27C150.641 22.27 150.041 22.44 149.561 22.78C149.101 23.12 148.731 23.57 148.451 24.13C148.171 24.67 147.971 25.26 147.851 25.9C147.751 26.54 147.701 27.16 147.701 27.76C147.701 28.4 147.821 28.94 148.061 29.38C148.321 29.82 148.661 30.16 149.081 30.4C149.521 30.62 150.031 30.73 150.611 30.73C151.331 30.73 151.911 30.57 152.351 30.25C152.791 29.91 153.131 29.49 153.371 28.99L157.571 30.64C157.231 31.4 156.701 32.05 155.981 32.59C155.281 33.13 154.451 33.55 153.491 33.85C152.551 34.13 151.521 34.27 150.401 34.27ZM167.924 34.3C166.344 34.3 164.984 34.01 163.844 33.43C162.724 32.83 161.864 32.02 161.264 31C160.664 29.96 160.364 28.78 160.364 27.46C160.364 25.84 160.694 24.37 161.354 23.05C162.034 21.73 163.014 20.68 164.294 19.9C165.594 19.1 167.154 18.7 168.974 18.7C170.354 18.7 171.554 18.93 172.574 19.39C173.614 19.85 174.424 20.49 175.004 21.31C175.604 22.13 175.924 23.09 175.964 24.19L171.074 24.97C171.134 24.19 170.994 23.56 170.654 23.08C170.334 22.6 169.764 22.36 168.944 22.36C168.384 22.36 167.884 22.53 167.444 22.87C167.004 23.19 166.624 23.62 166.304 24.16C166.004 24.7 165.764 25.3 165.584 25.96C165.424 26.6 165.344 27.25 165.344 27.91C165.344 28.47 165.444 28.96 165.644 29.38C165.864 29.8 166.164 30.13 166.544 30.37C166.944 30.59 167.414 30.7 167.954 30.7C168.494 30.7 168.994 30.52 169.454 30.16C169.934 29.78 170.264 29.28 170.444 28.66L175.004 30.13C174.444 31.43 173.544 32.45 172.304 33.19C171.084 33.93 169.624 34.3 167.924 34.3ZM183.84 34.27C182.6 34.27 181.55 34.06 180.69 33.64C179.83 33.2 179.23 32.55 178.89 31.69C178.55 30.83 178.52 29.77 178.8 28.51L181.71 15.76L187.17 14.32L183.9 28.39C183.7 29.17 183.79 29.76 184.17 30.16C184.57 30.54 185.15 30.73 185.91 30.73C186.37 30.73 186.74 30.69 187.02 30.61C187.32 30.53 187.58 30.43 187.8 30.31L187.5 33.58C186.96 33.84 186.38 34.02 185.76 34.12C185.14 34.22 184.5 34.27 183.84 34.27ZM177.36 22.63L178.2 19H190.17L189.33 22.63H177.36ZM194.717 34.27C193.657 34.27 192.757 34.04 192.017 33.58C191.277 33.12 190.747 32.47 190.427 31.63C190.127 30.77 190.107 29.75 190.367 28.57L192.617 19H197.717L195.677 27.82C195.477 28.64 195.547 29.27 195.887 29.71C196.247 30.15 196.777 30.37 197.477 30.37C198.017 30.37 198.487 30.25 198.887 30.01C199.287 29.75 199.617 29.38 199.877 28.9C200.157 28.4 200.377 27.8 200.537 27.1L202.427 19H207.527L204.047 34H199.517L200.267 29.23L200.537 29.68C200.117 31.16 199.387 32.3 198.347 33.1C197.327 33.88 196.117 34.27 194.717 34.27ZM207.537 34L211.017 19H215.547L214.617 24.46L214.407 23.95C214.727 22.89 215.147 21.97 215.667 21.19C216.187 20.41 216.827 19.8 217.587 19.36C218.347 18.92 219.207 18.7 220.167 18.7C220.507 18.7 220.787 18.73 221.007 18.79C221.247 18.83 221.447 18.89 221.607 18.97L220.377 23.26C220.177 23.16 219.937 23.09 219.657 23.05C219.397 22.99 219.057 22.96 218.637 22.96C218.017 22.96 217.407 23.1 216.807 23.38C216.227 23.64 215.717 24.07 215.277 24.67C214.837 25.27 214.497 26.07 214.257 27.07L212.637 34H207.537ZM226.197 34.27C225.197 34.27 224.297 34.04 223.497 33.58C222.717 33.1 222.097 32.42 221.637 31.54C221.197 30.64 220.977 29.54 220.977 28.24C220.977 27.04 221.147 25.87 221.487 24.73C221.827 23.59 222.317 22.57 222.957 21.67C223.617 20.75 224.397 20.03 225.297 19.51C226.217 18.97 227.247 18.7 228.387 18.7C229.047 18.7 229.677 18.82 230.277 19.06C230.897 19.3 231.417 19.67 231.837 20.17C232.277 20.67 232.577 21.33 232.737 22.15L233.457 19H238.557L235.077 34H230.457L230.967 31.18C230.487 32.14 229.827 32.9 228.987 33.46C228.147 34 227.217 34.27 226.197 34.27ZM228.417 30.55C228.917 30.55 229.377 30.39 229.797 30.07C230.217 29.75 230.577 29.33 230.877 28.81C231.197 28.27 231.437 27.69 231.597 27.07C231.777 26.43 231.867 25.8 231.867 25.18C231.867 24.62 231.767 24.14 231.567 23.74C231.387 23.32 231.127 23 230.787 22.78C230.447 22.56 230.037 22.45 229.557 22.45C228.997 22.45 228.497 22.62 228.057 22.96C227.617 23.28 227.247 23.7 226.947 24.22C226.647 24.74 226.417 25.31 226.257 25.93C226.097 26.53 226.017 27.11 226.017 27.67C226.017 28.27 226.107 28.79 226.287 29.23C226.467 29.65 226.727 29.98 227.067 30.22C227.427 30.44 227.877 30.55 228.417 30.55ZM244.052 34.27C242.252 34.27 240.982 33.78 240.242 32.8C239.522 31.8 239.362 30.47 239.762 28.81L243.512 12.64H248.612L244.892 28.75C244.712 29.41 244.742 29.91 244.982 30.25C245.222 30.57 245.662 30.73 246.302 30.73C246.542 30.73 246.752 30.72 246.932 30.7C247.112 30.68 247.262 30.65 247.382 30.61L246.482 33.91C246.162 34.05 245.812 34.14 245.432 34.18C245.052 34.24 244.592 34.27 244.052 34.27ZM278.381 14.2L266.981 34H260.921L258.731 14.2H263.651L264.551 26.05L264.731 29.95L266.531 26.08L273.101 14.2H278.381ZM280.513 34.27C279.513 34.27 278.613 34.04 277.813 33.58C277.033 33.1 276.413 32.42 275.953 31.54C275.513 30.64 275.293 29.54 275.293 28.24C275.293 27.04 275.463 25.87 275.803 24.73C276.143 23.59 276.633 22.57 277.273 21.67C277.933 20.75 278.713 20.03 279.613 19.51C280.533 18.97 281.563 18.7 282.703 18.7C283.363 18.7 283.993 18.82 284.593 19.06C285.213 19.3 285.733 19.67 286.153 20.17C286.593 20.67 286.893 21.33 287.053 22.15L287.773 19H292.873L289.393 34H284.773L285.283 31.18C284.803 32.14 284.143 32.9 283.303 33.46C282.463 34 281.533 34.27 280.513 34.27ZM282.733 30.55C283.233 30.55 283.693 30.39 284.113 30.07C284.533 29.75 284.893 29.33 285.193 28.81C285.513 28.27 285.753 27.69 285.913 27.07C286.093 26.43 286.183 25.8 286.183 25.18C286.183 24.62 286.083 24.14 285.883 23.74C285.703 23.32 285.443 23 285.103 22.78C284.763 22.56 284.353 22.45 283.873 22.45C283.313 22.45 282.813 22.62 282.373 22.96C281.933 23.28 281.563 23.7 281.263 24.22C280.963 24.74 280.733 25.31 280.573 25.93C280.413 26.53 280.333 27.11 280.333 27.67C280.333 28.27 280.423 28.79 280.603 29.23C280.783 29.65 281.043 29.98 281.383 30.22C281.743 30.44 282.193 30.55 282.733 30.55ZM292.908 34L296.388 19H300.918L300.168 23.77L299.898 23.35C300.318 21.85 301.058 20.7 302.118 19.9C303.178 19.1 304.408 18.7 305.808 18.7C306.888 18.7 307.788 18.94 308.508 19.42C309.248 19.88 309.758 20.54 310.038 21.4C310.338 22.26 310.348 23.3 310.068 24.52L307.848 34H302.748L304.818 25.15C304.998 24.35 304.928 23.73 304.608 23.29C304.288 22.83 303.768 22.6 303.048 22.6C302.508 22.6 302.028 22.73 301.608 22.99C301.208 23.23 300.858 23.6 300.558 24.1C300.278 24.58 300.058 25.18 299.898 25.9L298.008 34H292.908ZM317.548 40.45C316.648 40.45 315.778 40.34 314.938 40.12C314.118 39.9 313.388 39.56 312.748 39.1C312.108 38.64 311.598 38.06 311.218 37.36C310.838 36.68 310.638 35.88 310.618 34.96L315.748 34.42C315.788 35.26 315.968 35.92 316.288 36.4C316.628 36.9 317.248 37.15 318.148 37.15C318.648 37.15 319.098 37.04 319.498 36.82C319.918 36.6 320.278 36.24 320.578 35.74C320.898 35.24 321.148 34.56 321.328 33.7L322.438 28.9H322.708C322.388 30.42 321.778 31.59 320.878 32.41C319.978 33.21 318.858 33.61 317.518 33.61C316.518 33.61 315.618 33.38 314.818 32.92C314.018 32.44 313.388 31.76 312.928 30.88C312.468 29.98 312.238 28.92 312.238 27.7C312.238 26.5 312.408 25.37 312.748 24.31C313.108 23.23 313.608 22.27 314.248 21.43C314.888 20.57 315.658 19.9 316.558 19.42C317.458 18.94 318.468 18.7 319.588 18.7C320.368 18.7 321.088 18.87 321.748 19.21C322.428 19.55 322.978 20.08 323.398 20.8C323.838 21.5 324.048 22.4 324.028 23.5L323.428 24.25L324.628 19H329.728L326.428 33.28C326.008 35.06 325.398 36.47 324.598 37.51C323.818 38.55 322.838 39.3 321.658 39.76C320.478 40.22 319.108 40.45 317.548 40.45ZM319.768 29.92C320.428 29.92 320.998 29.69 321.478 29.23C321.978 28.77 322.358 28.18 322.618 27.46C322.898 26.72 323.038 25.94 323.038 25.12C323.038 24.58 322.938 24.11 322.738 23.71C322.558 23.31 322.288 23 321.928 22.78C321.588 22.56 321.178 22.45 320.698 22.45C319.978 22.45 319.358 22.69 318.838 23.17C318.338 23.63 317.948 24.22 317.668 24.94C317.408 25.64 317.278 26.36 317.278 27.1C317.278 27.94 317.488 28.62 317.908 29.14C318.328 29.66 318.948 29.92 319.768 29.92ZM335.224 34.27C334.164 34.27 333.264 34.04 332.524 33.58C331.784 33.12 331.254 32.47 330.934 31.63C330.634 30.77 330.614 29.75 330.874 28.57L333.124 19H338.224L336.184 27.82C335.984 28.64 336.054 29.27 336.394 29.71C336.754 30.15 337.284 30.37 337.984 30.37C338.524 30.37 338.994 30.25 339.394 30.01C339.794 29.75 340.124 29.38 340.384 28.9C340.664 28.4 340.884 27.8 341.044 27.1L342.934 19H348.034L344.554 34H340.024L340.774 29.23L341.044 29.68C340.624 31.16 339.894 32.3 338.854 33.1C337.834 33.88 336.624 34.27 335.224 34.27ZM354.195 34.27C353.195 34.27 352.295 34.04 351.495 33.58C350.715 33.1 350.095 32.42 349.635 31.54C349.195 30.64 348.975 29.54 348.975 28.24C348.975 27.04 349.145 25.87 349.485 24.73C349.825 23.59 350.315 22.57 350.955 21.67C351.615 20.75 352.395 20.03 353.295 19.51C354.215 18.97 355.245 18.7 356.385 18.7C357.045 18.7 357.675 18.82 358.275 19.06C358.895 19.3 359.415 19.67 359.835 20.17C360.275 20.67 360.575 21.33 360.735 22.15L361.455 19H366.555L363.075 34H358.455L358.965 31.18C358.485 32.14 357.825 32.9 356.985 33.46C356.145 34 355.215 34.27 354.195 34.27ZM356.415 30.55C356.915 30.55 357.375 30.39 357.795 30.07C358.215 29.75 358.575 29.33 358.875 28.81C359.195 28.27 359.435 27.69 359.595 27.07C359.775 26.43 359.865 25.8 359.865 25.18C359.865 24.62 359.765 24.14 359.565 23.74C359.385 23.32 359.125 23 358.785 22.78C358.445 22.56 358.035 22.45 357.555 22.45C356.995 22.45 356.495 22.62 356.055 22.96C355.615 23.28 355.245 23.7 354.945 24.22C354.645 24.74 354.415 25.31 354.255 25.93C354.095 26.53 354.015 27.11 354.015 27.67C354.015 28.27 354.105 28.79 354.285 29.23C354.465 29.65 354.725 29.98 355.065 30.22C355.425 30.44 355.875 30.55 356.415 30.55ZM366.59 34L370.07 19H374.6L373.67 24.46L373.46 23.95C373.78 22.89 374.2 21.97 374.72 21.19C375.24 20.41 375.88 19.8 376.64 19.36C377.4 18.92 378.26 18.7 379.22 18.7C379.56 18.7 379.84 18.73 380.06 18.79C380.3 18.83 380.5 18.89 380.66 18.97L379.43 23.26C379.23 23.16 378.99 23.09 378.71 23.05C378.45 22.99 378.11 22.96 377.69 22.96C377.07 22.96 376.46 23.1 375.86 23.38C375.28 23.64 374.77 24.07 374.33 24.67C373.89 25.27 373.55 26.07 373.31 27.07L371.69 34H366.59ZM385.25 34.27C384.25 34.27 383.35 34.04 382.55 33.58C381.77 33.1 381.15 32.42 380.69 31.54C380.25 30.64 380.03 29.54 380.03 28.24C380.03 27.04 380.2 25.87 380.54 24.73C380.88 23.59 381.37 22.57 382.01 21.67C382.67 20.75 383.45 20.03 384.35 19.51C385.27 18.97 386.3 18.7 387.44 18.7C388.1 18.7 388.73 18.82 389.33 19.06C389.95 19.3 390.47 19.67 390.89 20.17C391.33 20.67 391.63 21.33 391.79 22.15L393.98 12.64H399.08L394.13 34H389.51L390.02 31.18C389.54 32.14 388.88 32.9 388.04 33.46C387.2 34 386.27 34.27 385.25 34.27ZM387.47 30.55C387.97 30.55 388.43 30.39 388.85 30.07C389.27 29.75 389.63 29.33 389.93 28.81C390.25 28.27 390.49 27.69 390.65 27.07C390.83 26.43 390.92 25.8 390.92 25.18C390.92 24.62 390.82 24.14 390.62 23.74C390.44 23.32 390.18 23 389.84 22.78C389.5 22.56 389.09 22.45 388.61 22.45C388.05 22.45 387.55 22.62 387.11 22.96C386.67 23.28 386.3 23.7 386 24.22C385.7 24.74 385.47 25.31 385.31 25.93C385.15 26.53 385.07 27.11 385.07 27.67C385.07 28.27 385.16 28.79 385.34 29.23C385.52 29.65 385.78 29.98 386.12 30.22C386.48 30.44 386.93 30.55 387.47 30.55Z" fill="#2947A9"/>
</svg>
